<svg xmlns="http://www.w3.org/2000/svg" width="165" height="36" fill="none"><path fill="#2C2C2C" d="M1.897 0h161.206C164.147 0 165 .81 165 1.8v32.4c0 .99-.853 1.8-1.897 1.8H1.897C.853 36 0 35.19 0 34.2V1.8C0 .81.853 0 1.897 0"/><path fill="#2987F8" d="M13.451 9v2.16h1.255c.539.09 2.332 1.53 2.69 1.89.36.36 1.346 1.17 1.346 1.71v2.34h3.407v-3.24h-2.42c-.539-.09-1.705-.72-2.063-.99-.359-.36-1.883-2.07-1.973-2.61V9zm12.196 18-3.856-5.13H16.59V27h-3.14V13.14h1.704c.807 0 1.435.72 1.435 1.53v4.23h7.443v-7.02h-4.484c-.807 0-1.524-.63-1.524-1.35V9h4.214c1.883 0 3.587.72 4.842 1.89a6.14 6.14 0 0 1 1.973 4.5c0 1.8-.807 3.33-1.973 4.5-.537.54-1.165.9-1.793 1.26l4.394 5.76h-4.035z"/><path fill="#fff" d="M43.223 12.96V27h-2.6l-6.278-8.91h-.09V27h-3.049V12.96h2.69l6.278 8.73h.09v-8.73zm7.174 13.95h-5.112V12.96h5.201q2.152 0 3.767.81a5.55 5.55 0 0 1 2.42 2.34c.539.99.898 2.25.898 3.69s-.27 2.79-.897 3.78c-.538 1.08-1.345 1.8-2.421 2.43s-2.332.9-3.856.9m-2.063-2.61h1.973c.897 0 1.704-.18 2.242-.45.628-.27 1.076-.81 1.435-1.44.358-.63.448-1.53.448-2.52s-.18-1.89-.448-2.52a2.8 2.8 0 0 0-1.435-1.44 5.5 5.5 0 0 0-2.242-.45h-1.973zm20.536-6.84c-.09-.36-.27-.63-.449-.9a2.1 2.1 0 0 0-.628-.63c-.269-.18-.538-.36-.896-.45-.359-.09-.718-.18-1.076-.18a3.83 3.83 0 0 0-1.973.54c-.538.36-.987.9-1.256 1.53s-.448 1.53-.448 2.43c0 .99.18 1.8.448 2.43.27.72.718 1.17 1.256 1.53s1.255.54 1.973.54c.717 0 1.255-.09 1.793-.36s.897-.54 1.166-.99.359-.99.359-1.53l.627.09H66v-2.25h6.008v1.71c0 1.26-.269 2.25-.807 3.15s-1.255 1.53-2.242 1.98c-.807.63-1.883.9-3.049.9-1.345 0-2.51-.27-3.587-.9-.986-.54-1.793-1.44-2.42-2.43a8.4 8.4 0 0 1-.898-3.78c0-1.08.18-2.16.538-2.97.36-.9.807-1.62 1.435-2.25s1.345-1.08 2.152-1.44 1.704-.45 2.69-.45c.808 0 1.615.09 2.332.36.718.27 1.345.54 1.883.99s.987.9 1.345 1.44c.36.54.538 1.17.628 1.89zM73.981 27V12.96h9.774v2.43H77.03v3.33h6.187v2.43H77.03v3.33h6.725V27zm23.853-14.04V27h-2.6l-6.277-8.91h-.18V27h-3.049V12.96h2.69l6.278 8.73h.09v-8.73zM102.497 27c-.448 0-.896-.18-1.166-.45-.358-.36-.538-.72-.538-1.17s.18-.81.538-1.17.718-.45 1.166-.45c.449 0 .807.18 1.166.45.359.36.538.72.538 1.17q0 .405-.269.81c-.179.27-.359.45-.628.63-.269.09-.538.18-.807.18m16.5-9.18h-3.049c-.089-.36-.179-.72-.358-.99-.18-.27-.359-.54-.628-.81a3.3 3.3 0 0 0-.986-.45c-.359-.09-.718-.18-1.166-.18-.718 0-1.435.18-1.973.54s-.986.9-1.255 1.53-.449 1.53-.449 2.43c0 .99.18 1.8.449 2.52.269.63.717 1.17 1.255 1.53s1.166.54 1.973.54c.448 0 .807-.09 1.166-.18s.627-.27.896-.45.538-.45.718-.72.269-.63.358-.99h3.049c-.089.63-.269 1.26-.627 1.8-.359.63-.718 1.08-1.256 1.62q-.807.675-1.883 1.08c-.717.27-1.524.36-2.511.36a7.7 7.7 0 0 1-3.497-.81q-1.48-.81-2.421-2.43c-.628-1.08-.897-2.34-.897-3.87s.269-2.79.897-3.87q.94-1.62 2.421-2.43c.986-.54 2.152-.81 3.407-.81.808 0 1.615.09 2.332.36s1.345.54 1.883.99q.808.675 1.345 1.62c.449.54.718 1.26.807 2.07m15.065 2.07c0 1.53-.269 2.79-.896 3.87q-.942 1.62-2.421 2.43c-.987.54-2.153.81-3.408.81a7.7 7.7 0 0 1-3.497-.81q-1.48-.81-2.422-2.43c-.627-1.08-.896-2.34-.896-3.87s.269-2.79.896-3.87q.942-1.62 2.422-2.43t3.497-.81c1.255 0 2.421.27 3.408.81q1.479.81 2.421 2.43c.538 1.08.896 2.34.896 3.87m-3.138 0c0-.99-.179-1.8-.448-2.52a3.5 3.5 0 0 0-1.256-1.53c-.538-.36-1.166-.54-1.973-.54-.717 0-1.345.18-1.973.54-.538.36-.986.9-1.255 1.53s-.448 1.53-.448 2.52.179 1.8.448 2.52c.269.63.717 1.17 1.255 1.53s1.166.54 1.973.54a3.83 3.83 0 0 0 1.973-.54c.538-.36.987-.9 1.256-1.53.358-.72.448-1.53.448-2.52m4.932-6.93h3.766l3.946 9.36h.179l3.946-9.36h3.766V27H148.5v-9.18h-.09L144.644 27h-2.062l-3.587-9.27h-.09V27h-2.959V12.96z"/></svg>